<?xml version="1.0" encoding="UTF-8" standalone="no"?>
<!DOCTYPE svg PUBLIC "-//W3C//DTD SVG 1.1//EN"
 "http://www.w3.org/Graphics/SVG/1.1/DTD/svg11.dtd">
<!-- Generated by graphviz version 2.43.0 (0)
 -->
<!-- Title: %3 Pages: 1 -->
<svg width="814pt" height="476pt"
 viewBox="0.00 0.00 814.00 476.00" xmlns="http://www.w3.org/2000/svg" xmlns:xlink="http://www.w3.org/1999/xlink">
<g id="graph0" class="graph" transform="scale(1 1) rotate(0) translate(4 472)">
<title>%3</title>
<polygon fill="white" stroke="transparent" points="-4,4 -4,-472 810,-472 810,4 -4,4"/>
<!-- 🤖 -->
<g id="robot_begins" class="node">
<title>🤖</title>
<ellipse fill="#fcfcfc" stroke="black" cx="174" cy="-450" rx="18" ry="18"/>
<text text-anchor="middle" x="174" y="-444.1" font-family="Times,serif" font-size="23.00">🤖</text>
</g>
<!-- 0 -->
<g id="id0" class="node">
<title>0</title>
<ellipse fill="#fcfcfc" stroke="black" cx="94" cy="-306" rx="18" ry="18"/>
<text text-anchor="middle" x="94" y="-302.3" font-family="Times,serif" font-size="14.00">0</text>
</g>
<!-- 1 -->
<g id="id1" class="node">
<title>1</title>
<ellipse fill="#fcfcfc" stroke="black" cx="198" cy="-234" rx="18" ry="18"/>
<text text-anchor="middle" x="198" y="-230.3" font-family="Times,serif" font-size="14.00">1</text>
</g>
<!-- 0&#45;&#45;1 -->
<g id="edge1" class="edge _0_ _1_">
<title>0&#45;&#45;1</title>
<path fill="none" stroke="black" d="M108.46,-295.27C128.22,-281.97 163.46,-258.25 183.33,-244.88"/>
</g>
<!-- 20 -->
<g id="id20" class="node">
<title>20</title>
<ellipse fill="#fcfcfc" stroke="black" cx="175" cy="-90" rx="18" ry="18"/>
<text text-anchor="middle" x="175" y="-86.3" font-family="Times,serif" font-size="14.00">20</text>
</g>
<!-- 0&#45;&#45;20 -->
<g id="edge13" class="edge _0_ _20_">
<title>0&#45;&#45;20</title>
<path fill="none" stroke="black" d="M100.09,-288.92C115.14,-249.16 153.95,-146.62 168.95,-106.98"/>
</g>
<!-- 19 -->
<g id="id19" class="node">
<title>19</title>
<ellipse fill="#fcfcfc" stroke="black" cx="198" cy="-162" rx="18" ry="18"/>
<text text-anchor="middle" x="198" y="-158.3" font-family="Times,serif" font-size="14.00">19</text>
</g>
<!-- 1&#45;&#45;19 -->
<g id="edge14" class="edge _1_ _19_">
<title>1&#45;&#45;19</title>
<path fill="none" stroke="black" d="M198,-215.7C198,-204.85 198,-190.92 198,-180.1"/>
</g>
<!-- 2 -->
<g id="id2" class="node">
<title>2</title>
<ellipse fill="#fcfcfc" stroke="black" cx="366" cy="-234" rx="18" ry="18"/>
<text text-anchor="middle" x="366" y="-230.3" font-family="Times,serif" font-size="14.00">2</text>
</g>
<!-- 3 -->
<g id="id3" class="node">
<title>3</title>
<ellipse fill="#fcfcfc" stroke="black" cx="366" cy="-162" rx="18" ry="18"/>
<text text-anchor="middle" x="366" y="-158.3" font-family="Times,serif" font-size="14.00">3</text>
</g>
<!-- 2&#45;&#45;3 -->
<g id="edge2" class="edge _2_ _3_">
<title>2&#45;&#45;3</title>
<path fill="none" stroke="black" d="M366,-215.7C366,-204.85 366,-190.92 366,-180.1"/>
</g>
<!-- 2&#45;&#45;19 -->
<g id="edge15" class="edge _2_ _19_">
<title>2&#45;&#45;19</title>
<path fill="none" stroke="black" d="M350.61,-224.21C345.42,-221.41 339.54,-218.41 334,-216 289.16,-196.47 274.84,-199.53 230,-180 224.46,-177.59 218.58,-174.59 213.39,-171.79"/>
</g>
<!-- 21 -->
<g id="id21" class="node">
<title>21</title>
<ellipse fill="#fcfcfc" stroke="black" cx="543" cy="-90" rx="18" ry="18"/>
<text text-anchor="middle" x="543" y="-86.3" font-family="Times,serif" font-size="14.00">21</text>
</g>
<!-- 3&#45;&#45;21 -->
<g id="edge29" class="edge _3_ _21_">
<title>3&#45;&#45;21</title>
<path fill="none" stroke="black" d="M380.51,-151.04C384.47,-148.55 388.81,-146.03 393,-144 439.24,-121.62 497.47,-103.78 525.86,-95.7"/>
</g>
<!-- 23 -->
<g id="id23" class="node">
<title>23</title>
<ellipse fill="#fcfcfc" stroke="black" cx="366" cy="-90" rx="18" ry="18"/>
<text text-anchor="middle" x="366" y="-86.3" font-family="Times,serif" font-size="14.00">23</text>
</g>
<!-- 3&#45;&#45;23 -->
<g id="edge22" class="edge _3_ _23_">
<title>3&#45;&#45;23</title>
<path fill="none" stroke="black" d="M366,-143.7C366,-132.85 366,-118.92 366,-108.1"/>
</g>
<!-- 4 -->
<g id="id4" class="node">
<title>4</title>
<ellipse fill="#fcfcfc" stroke="black" cx="420" cy="-234" rx="18" ry="18"/>
<text text-anchor="middle" x="420" y="-230.3" font-family="Times,serif" font-size="14.00">4</text>
</g>
<!-- 5 -->
<g id="id5" class="node">
<title>5</title>
<ellipse fill="#fcfcfc" stroke="black" cx="420" cy="-162" rx="18" ry="18"/>
<text text-anchor="middle" x="420" y="-158.3" font-family="Times,serif" font-size="14.00">5</text>
</g>
<!-- 4&#45;&#45;5 -->
<g id="edge3" class="edge _4_ _5_">
<title>4&#45;&#45;5</title>
<path fill="none" stroke="black" d="M420,-215.7C420,-204.85 420,-190.92 420,-180.1"/>
</g>
<!-- 4&#45;&#45;20 -->
<g id="edge16" class="edge _4_ _20_">
<title>4&#45;&#45;20</title>
<path fill="none" stroke="black" d="M405.56,-222.87C401.61,-220.39 397.25,-217.9 393,-216 340.24,-192.36 318.12,-208.82 268,-180 249.69,-169.47 207.73,-125.98 187.01,-103.93"/>
</g>
<!-- 5&#45;&#45;23 -->
<g id="edge23" class="edge _5_ _23_">
<title>5&#45;&#45;23</title>
<path fill="none" stroke="black" d="M409.33,-147.17C399.86,-134.9 386.11,-117.06 376.65,-104.8"/>
</g>
<!-- 27 -->
<g id="id27" class="node">
<title>27</title>
<ellipse fill="#fcfcfc" stroke="black" cx="726" cy="-90" rx="18" ry="18"/>
<text text-anchor="middle" x="726" y="-86.3" font-family="Times,serif" font-size="14.00">27</text>
</g>
<!-- 5&#45;&#45;27 -->
<g id="edge25" class="edge _5_ _27_">
<title>5&#45;&#45;27</title>
<path fill="none" stroke="black" d="M433.99,-150.65C438.02,-148.11 442.53,-145.65 447,-144 550.24,-105.86 587.01,-141.03 692,-108 698.42,-105.98 705.12,-102.87 710.86,-99.86"/>
</g>
<!-- 6 -->
<g id="id6" class="node">
<title>6</title>
<ellipse fill="#fcfcfc" stroke="black" cx="547" cy="-306" rx="18" ry="18"/>
<text text-anchor="middle" x="547" y="-302.3" font-family="Times,serif" font-size="14.00">6</text>
</g>
<!-- 7 -->
<g id="id7" class="node">
<title>7</title>
<ellipse fill="#fcfcfc" stroke="black" cx="528" cy="-234" rx="18" ry="18"/>
<text text-anchor="middle" x="528" y="-230.3" font-family="Times,serif" font-size="14.00">7</text>
</g>
<!-- 6&#45;&#45;7 -->
<g id="edge4" class="edge _6_ _7_">
<title>6&#45;&#45;7</title>
<path fill="none" stroke="black" d="M542.5,-288.41C539.47,-277.25 535.49,-262.6 532.47,-251.47"/>
</g>
<!-- 11 -->
<g id="id11" class="node">
<title>11</title>
<ellipse fill="#fcfcfc" stroke="black" cx="566" cy="-162" rx="18" ry="18"/>
<text text-anchor="middle" x="566" y="-158.3" font-family="Times,serif" font-size="14.00">11</text>
</g>
<!-- 6&#45;&#45;11 -->
<g id="edge5" class="edge _6_ _11_">
<title>6&#45;&#45;11</title>
<path fill="none" stroke="black" d="M549.71,-287.83C551.32,-277.46 553.36,-263.98 555,-252 558.43,-227.01 561.92,-198.01 564.03,-180.08"/>
</g>
<!-- 7&#45;&#45;11 -->
<g id="edge26" class="edge _7_ _11_">
<title>7&#45;&#45;11</title>
<path fill="none" stroke="black" d="M536.25,-217.81C542.62,-206.07 551.4,-189.89 557.77,-178.16"/>
</g>
<!-- 7&#45;&#45;23 -->
<g id="edge24" class="edge _7_ _23_">
<title>7&#45;&#45;23</title>
<path fill="none" stroke="black" d="M510.4,-229.32C465.52,-219.78 349.6,-193.99 339,-180 321.73,-157.23 341.25,-123.4 354.94,-104.69"/>
</g>
<!-- 8 -->
<g id="id8" class="node">
<title>8</title>
<ellipse fill="#fcfcfc" stroke="black" cx="611" cy="-450" rx="18" ry="18"/>
<text text-anchor="middle" x="611" y="-446.3" font-family="Times,serif" font-size="14.00">8</text>
</g>
<!-- 9 -->
<g id="id9" class="node">
<title>9</title>
<ellipse fill="#fcfcfc" stroke="black" cx="604" cy="-378" rx="18" ry="18"/>
<text text-anchor="middle" x="604" y="-374.3" font-family="Times,serif" font-size="14.00">9</text>
</g>
<!-- 8&#45;&#45;9 -->
<g id="edge6" class="edge _8_ _9_">
<title>8&#45;&#45;9</title>
<path fill="none" stroke="black" d="M609.31,-432.05C608.22,-421.21 606.82,-407.18 605.73,-396.28"/>
</g>
<!-- 22 -->
<g id="id22" class="node">
<title>22</title>
<ellipse fill="#fcfcfc" stroke="black" cx="665" cy="-90" rx="18" ry="18"/>
<text text-anchor="middle" x="665" y="-86.3" font-family="Times,serif" font-size="14.00">22</text>
</g>
<!-- 8&#45;&#45;22 -->
<g id="edge17" class="edge _8_ _22_">
<title>8&#45;&#45;22</title>
<path fill="none" stroke="black" d="M618.34,-433.2C629.63,-407.39 650,-354.3 650,-307 650,-307 650,-307 650,-233 650,-187.63 657.67,-134.57 662.04,-107.99"/>
</g>
<!-- 15 -->
<g id="id15" class="node">
<title>15</title>
<ellipse fill="#fcfcfc" stroke="black" cx="278" cy="-306" rx="18" ry="18"/>
<text text-anchor="middle" x="278" y="-302.3" font-family="Times,serif" font-size="14.00">15</text>
</g>
<!-- 9&#45;&#45;15 -->
<g id="edge34" class="edge _9_ _15_">
<title>9&#45;&#45;15</title>
<path fill="none" stroke="black" d="M586.47,-373.24C529.87,-361.08 352.34,-322.96 295.61,-310.78"/>
</g>
<!-- 9&#45;&#45;21 -->
<g id="edge41" class="edge _9_ _21_">
<title>9&#45;&#45;21</title>
<path fill="none" stroke="black" d="M607.05,-360.03C613.4,-320.33 624.91,-219.1 593,-144 585.48,-126.3 569.26,-110.94 557.33,-101.37"/>
</g>
<!-- 10 -->
<g id="id10" class="node">
<title>10</title>
<ellipse fill="#fcfcfc" stroke="black" cx="680" cy="-450" rx="18" ry="18"/>
<text text-anchor="middle" x="680" y="-446.3" font-family="Times,serif" font-size="14.00">10</text>
</g>
<!-- 10&#45;&#45;9 -->
<g id="edge7" class="edge _10_ _9_">
<title>10&#45;&#45;9</title>
<path fill="none" stroke="black" d="M667.11,-437.13C653.13,-424.25 630.96,-403.83 616.96,-390.93"/>
</g>
<!-- 10&#45;&#45;22 -->
<g id="edge18" class="edge _10_ _22_">
<title>10&#45;&#45;22</title>
<path fill="none" stroke="black" d="M681.58,-431.97C683.91,-405.33 688,-352.19 688,-307 688,-307 688,-307 688,-233 688,-187.05 676.12,-133.79 669.43,-107.47"/>
</g>
<!-- 11&#45;&#45;21 -->
<g id="edge42" class="edge _11_ _21_">
<title>11&#45;&#45;21</title>
<path fill="none" stroke="black" d="M560.67,-144.76C557,-133.62 552.16,-118.87 548.47,-107.63"/>
</g>
<!-- 11&#45;&#45;22 -->
<g id="edge43" class="edge _11_ _22_">
<title>11&#45;&#45;22</title>
<path fill="none" stroke="black" d="M580.61,-150.67C599.43,-137.36 631.96,-114.36 650.65,-101.14"/>
</g>
<!-- 12 -->
<g id="id12" class="node">
<title>12</title>
<ellipse fill="#fcfcfc" stroke="black" cx="474" cy="-162" rx="18" ry="18"/>
<text text-anchor="middle" x="474" y="-158.3" font-family="Times,serif" font-size="14.00">12</text>
</g>
<!-- 13 -->
<g id="id13" class="node">
<title>13</title>
<ellipse fill="#fcfcfc" stroke="black" cx="474" cy="-18" rx="18" ry="18"/>
<text text-anchor="middle" x="474" y="-14.3" font-family="Times,serif" font-size="14.00">13</text>
</g>
<!-- 12&#45;&#45;13 -->
<g id="edge8" class="edge _12_ _13_">
<title>12&#45;&#45;13</title>
<path fill="none" stroke="black" d="M474,-143.87C474,-116.58 474,-63.52 474,-36.19"/>
</g>
<!-- 12&#45;&#45;21 -->
<g id="edge19" class="edge _12_ _21_">
<title>12&#45;&#45;21</title>
<path fill="none" stroke="black" d="M486.34,-148.49C498.9,-135.74 518.25,-116.11 530.77,-103.41"/>
</g>
<!-- 14 -->
<g id="id14" class="node">
<title>14</title>
<ellipse fill="#fcfcfc" stroke="black" cx="224" cy="-378" rx="18" ry="18"/>
<text text-anchor="middle" x="224" y="-374.3" font-family="Times,serif" font-size="14.00">14</text>
</g>
<!-- 14&#45;&#45;13 -->
<g id="edge9" class="edge _14_ _13_">
<title>14&#45;&#45;13</title>
<path fill="none" stroke="black" d="M206,-376.79C169.75,-375.42 87.25,-367.4 38,-324 5.73,-295.56 0,-278.01 0,-235 0,-235 0,-235 0,-161 0,-113.3 19.39,-97.04 60,-72 127.85,-30.17 384.83,-21.09 455.77,-19.37"/>
</g>
<!-- 14&#45;&#45;15 -->
<g id="edge10" class="edge _14_ _15_">
<title>14&#45;&#45;15</title>
<path fill="none" stroke="black" d="M234.67,-363.17C244.14,-350.9 257.89,-333.06 267.35,-320.8"/>
</g>
<!-- 17 -->
<g id="id17" class="node">
<title>17</title>
<ellipse fill="#fcfcfc" stroke="black" cx="252" cy="-234" rx="18" ry="18"/>
<text text-anchor="middle" x="252" y="-230.3" font-family="Times,serif" font-size="14.00">17</text>
</g>
<!-- 15&#45;&#45;17 -->
<g id="edge49" class="edge _15_ _17_">
<title>15&#45;&#45;17</title>
<path fill="none" stroke="black" d="M271.97,-288.76C267.77,-277.46 262.19,-262.44 258,-251.15"/>
</g>
<!-- 16 -->
<g id="id16" class="node">
<title>16</title>
<ellipse fill="#fcfcfc" stroke="black" cx="148" cy="-306" rx="18" ry="18"/>
<text text-anchor="middle" x="148" y="-302.3" font-family="Times,serif" font-size="14.00">16</text>
</g>
<!-- 16&#45;&#45;17 -->
<g id="edge11" class="edge _16_ _17_">
<title>16&#45;&#45;17</title>
<path fill="none" stroke="black" d="M162.46,-295.27C182.22,-281.97 217.46,-258.25 237.33,-244.88"/>
</g>
<!-- 16&#45;&#45;20 -->
<g id="edge20" class="edge _16_ _20_">
<title>16&#45;&#45;20</title>
<path fill="none" stroke="black" d="M150.16,-287.85C155.23,-247.68 167.82,-147.89 172.86,-107.94"/>
</g>
<!-- 17&#45;&#45;19 -->
<g id="edge50" class="edge _17_ _19_">
<title>17&#45;&#45;19</title>
<path fill="none" stroke="black" d="M241.33,-219.17C231.86,-206.9 218.11,-189.06 208.65,-176.8"/>
</g>
<!-- 18 -->
<g id="id18" class="node">
<title>18</title>
<ellipse fill="#fcfcfc" stroke="black" cx="332" cy="-378" rx="18" ry="18"/>
<text text-anchor="middle" x="332" y="-374.3" font-family="Times,serif" font-size="14.00">18</text>
</g>
<!-- 18&#45;&#45;15 -->
<g id="edge12" class="edge _18_ _15_">
<title>18&#45;&#45;15</title>
<path fill="none" stroke="black" d="M321.33,-363.17C311.86,-350.9 298.11,-333.06 288.65,-320.8"/>
</g>
<!-- 18&#45;&#45;19 -->
<g id="edge21" class="edge _18_ _19_">
<title>18&#45;&#45;19</title>
<path fill="none" stroke="black" d="M330.29,-359.88C326.36,-328.3 314.13,-260.07 279,-216 260.56,-192.86 247.68,-196.32 223,-180 219.59,-177.74 215.93,-175.28 212.5,-172.95"/>
</g>
<!-- 19&#45;&#45;20 -->
<g id="edge51" class="edge _19_ _20_">
<title>19&#45;&#45;20</title>
<path fill="none" stroke="black" d="M192.67,-144.76C189,-133.62 184.16,-118.87 180.47,-107.63"/>
</g>
<!-- 19&#45;&#45;22 -->
<g id="edge52" class="edge _19_ _22_">
<title>19&#45;&#45;22</title>
<path fill="none" stroke="black" d="M215.84,-158.69C269.51,-151.68 434.1,-129.83 570,-108 597.13,-103.64 628.49,-97.89 647.52,-94.32"/>
</g>
<!-- 24 -->
<g id="id24" class="node">
<title>24</title>
<ellipse fill="#fcfcfc" stroke="black" cx="734" cy="-234" rx="18" ry="18"/>
<text text-anchor="middle" x="734" y="-230.3" font-family="Times,serif" font-size="14.00">24</text>
</g>
<!-- 24&#45;&#45;20 -->
<g id="edge30" class="edge _24_ _20_">
<title>24&#45;&#45;20</title>
<path fill="none" stroke="black" d="M716.15,-231.47C648.89,-225.58 411.03,-203.49 339,-180 308.05,-169.9 224.6,-120.8 190.17,-100.16"/>
</g>
<!-- 25 -->
<g id="id25" class="node">
<title>25</title>
<ellipse fill="#fcfcfc" stroke="black" cx="788" cy="-162" rx="18" ry="18"/>
<text text-anchor="middle" x="788" y="-158.3" font-family="Times,serif" font-size="14.00">25</text>
</g>
<!-- 24&#45;&#45;25 -->
<g id="edge27" class="edge _24_ _25_">
<title>24&#45;&#45;25</title>
<path fill="none" stroke="black" d="M744.67,-219.17C754.14,-206.9 767.89,-189.06 777.35,-176.8"/>
</g>
<!-- 26 -->
<g id="id26" class="node">
<title>26</title>
<ellipse fill="#fcfcfc" stroke="black" cx="734" cy="-162" rx="18" ry="18"/>
<text text-anchor="middle" x="734" y="-158.3" font-family="Times,serif" font-size="14.00">26</text>
</g>
<!-- 24&#45;&#45;26 -->
<g id="edge28" class="edge _24_ _26_">
<title>24&#45;&#45;26</title>
<path fill="none" stroke="black" d="M734,-215.7C734,-204.85 734,-190.92 734,-180.1"/>
</g>
<!-- 25&#45;&#45;13 -->
<g id="edge35" class="edge _25_ _13_">
<title>25&#45;&#45;13</title>
<path fill="none" stroke="black" d="M786.22,-144.07C783.13,-123.74 774.86,-90.11 753,-72 712.66,-38.58 547.05,-24.12 491.94,-20.18"/>
</g>
<!-- 25&#45;&#45;22 -->
<g id="edge44" class="edge _25_ _22_">
<title>25&#45;&#45;22</title>
<path fill="none" stroke="black" d="M773.24,-151.49C769.29,-149.01 765.01,-146.36 761,-144 733.13,-127.55 699.94,-109.58 680.79,-99.36"/>
</g>
<!-- 25&#45;&#45;27 -->
<g id="edge31" class="edge _25_ _27_">
<title>25&#45;&#45;27</title>
<path fill="none" stroke="black" d="M776.34,-147.83C765.25,-135.32 748.68,-116.6 737.61,-104.11"/>
</g>
<!-- 26&#45;&#45;21 -->
<g id="edge45" class="edge _26_ _21_">
<title>26&#45;&#45;21</title>
<path fill="none" stroke="black" d="M717.38,-154.91C681.26,-141.67 595.92,-110.4 559.71,-97.13"/>
</g>
<!-- 26&#45;&#45;22 -->
<g id="edge46" class="edge _26_ _22_">
<title>26&#45;&#45;22</title>
<path fill="none" stroke="black" d="M721.66,-148.49C709.1,-135.74 689.75,-116.11 677.23,-103.41"/>
</g>
<!-- 26&#45;&#45;27 -->
<g id="edge32" class="edge _26_ _27_">
<title>26&#45;&#45;27</title>
<path fill="none" stroke="black" d="M732.06,-144.05C730.82,-133.21 729.22,-119.18 727.97,-108.28"/>
</g>
<!-- 27&#45;&#45;13 -->
<g id="edge36" class="edge _27_ _13_">
<title>27&#45;&#45;13</title>
<path fill="none" stroke="black" d="M710.41,-80.28C704.74,-77.36 698.2,-74.27 692,-72 619.77,-45.55 529.24,-28.36 491.63,-21.89"/>
</g>
<!-- 28 -->
<g id="id28" class="node">
<title>28</title>
<ellipse fill="#fcfcfc" stroke="black" cx="228" cy="-450" rx="18" ry="18"/>
<text text-anchor="middle" x="228" y="-446.3" font-family="Times,serif" font-size="14.00">28</text>
</g>
<!-- 28&#45;&#45;17 -->
<g id="edge37" class="edge _28_ _17_">
<title>28&#45;&#45;17</title>
<path fill="none" stroke="black" d="M217.08,-435.09C209.81,-424.9 200.9,-410.4 197,-396 192.82,-380.56 193.71,-375.66 197,-360 205.88,-317.77 229.93,-272.41 243.1,-249.71"/>
</g>
<!-- 28&#45;&#45;20 -->
<g id="edge47" class="edge _28_ _20_">
<title>28&#45;&#45;20</title>
<path fill="none" stroke="black" d="M213.72,-439.02C175.83,-412.37 75.07,-340.49 67,-324 25.83,-239.91 124.88,-136.99 161.8,-102.72"/>
</g>
<!-- 28&#45;&#45;21 -->
<g id="edge48" class="edge _28_ _21_">
<title>28&#45;&#45;21</title>
<path fill="none" stroke="black" d="M245.85,-445.37C272.83,-439.16 324.47,-424.31 359,-396 460.61,-312.67 520.31,-157.53 537.67,-107.21"/>
</g>
<!-- 29 -->
<g id="id29" class="node">
<title>29</title>
<ellipse fill="#fcfcfc" stroke="black" cx="278" cy="-378" rx="18" ry="18"/>
<text text-anchor="middle" x="278" y="-374.3" font-family="Times,serif" font-size="14.00">29</text>
</g>
<!-- 28&#45;&#45;29 -->
<g id="edge33" class="edge _28_ _29_">
<title>28&#45;&#45;29</title>
<path fill="none" stroke="black" d="M238.12,-434.83C246.79,-422.69 259.23,-405.28 267.9,-393.14"/>
</g>
<!-- 29&#45;&#45;13 -->
<g id="edge38" class="edge _29_ _13_">
<title>29&#45;&#45;13</title>
<path fill="none" stroke="black" d="M263.67,-366.61C259.72,-364.14 255.33,-361.72 251,-360 173.54,-329.28 129.4,-379.23 67,-324 35.85,-296.43 38,-276.6 38,-235 38,-235 38,-235 38,-161 38,-98.11 90.6,-97.68 148,-72 257.13,-23.17 404.74,-18.72 455.77,-18.75"/>
</g>
<!-- 29&#45;&#45;15 -->
<g id="edge39" class="edge _29_ _15_">
<title>29&#45;&#45;15</title>
<path fill="none" stroke="black" d="M278,-359.7C278,-348.85 278,-334.92 278,-324.1"/>
</g>
<!-- 29&#45;&#45;17 -->
<g id="edge40" class="edge _29_ _17_">
<title>29&#45;&#45;17</title>
<path fill="none" stroke="black" d="M268.2,-362.43C261.91,-352.18 254.33,-337.86 251,-324 245.12,-299.51 247.13,-270.12 249.37,-252.01"/>
</g>
</g>
</svg>
