<?xml version="1.0" encoding="UTF-8" standalone="no"?>
<!DOCTYPE svg PUBLIC "-//W3C//DTD SVG 1.1//EN"
 "http://www.w3.org/Graphics/SVG/1.1/DTD/svg11.dtd">
<!-- Generated by graphviz version 2.43.0 (0)
 -->
<!-- Title: %3 Pages: 1 -->
<svg width="258pt" height="1628pt"
 viewBox="0.00 0.00 258.00 1628.00" xmlns="http://www.w3.org/2000/svg" xmlns:xlink="http://www.w3.org/1999/xlink">
<g id="graph0" class="graph" transform="scale(1 1) rotate(0) translate(4 1624)">
<title>%3</title>
<polygon fill="white" stroke="transparent" points="-4,4 -4,-1624 254,-1624 254,4 -4,4"/>
<!-- 🤖 -->
<g id="robot_begins" class="node">
<title>🤖</title>
<ellipse fill="#fcfcfc" stroke="black" cx="56" cy="-1602" rx="18" ry="18"/>
<text text-anchor="middle" x="56" y="-1596.1" font-family="Times,serif" font-size="23.00">🤖</text>
</g>
<!-- 0 -->
<g id="id0" class="node">
<title>0</title>
<ellipse fill="#fcfcfc" stroke="black" cx="115" cy="-1602" rx="18" ry="18"/>
<text text-anchor="middle" x="115" y="-1598.3" font-family="Times,serif" font-size="14.00">0</text>
</g>
<!-- 1 -->
<g id="id1" class="node">
<title>1</title>
<ellipse fill="#fcfcfc" stroke="black" cx="88" cy="-1530" rx="18" ry="18"/>
<text text-anchor="middle" x="88" y="-1526.3" font-family="Times,serif" font-size="14.00">1</text>
</g>
<!-- 0&#45;&#45;1 -->
<g id="edge1" class="edge _0_ _1_">
<title>0&#45;&#45;1</title>
<path fill="none" stroke="black" d="M108.74,-1584.76C104.38,-1573.46 98.58,-1558.44 94.23,-1547.15"/>
</g>
<!-- 2 -->
<g id="id2" class="node">
<title>2</title>
<ellipse fill="#fcfcfc" stroke="black" cx="142" cy="-1530" rx="18" ry="18"/>
<text text-anchor="middle" x="142" y="-1526.3" font-family="Times,serif" font-size="14.00">2</text>
</g>
<!-- 0&#45;&#45;2 -->
<g id="edge2" class="edge _0_ _2_">
<title>0&#45;&#45;2</title>
<path fill="none" stroke="black" d="M121.26,-1584.76C125.62,-1573.46 131.42,-1558.44 135.77,-1547.15"/>
</g>
<!-- 3 -->
<g id="id3" class="node">
<title>3</title>
<ellipse fill="#fcfcfc" stroke="black" cx="88" cy="-1458" rx="18" ry="18"/>
<text text-anchor="middle" x="88" y="-1454.3" font-family="Times,serif" font-size="14.00">3</text>
</g>
<!-- 1&#45;&#45;3 -->
<g id="edge3" class="edge _1_ _3_">
<title>1&#45;&#45;3</title>
<path fill="none" stroke="black" d="M88,-1511.7C88,-1500.85 88,-1486.92 88,-1476.1"/>
</g>
<!-- 4 -->
<g id="id4" class="node">
<title>4</title>
<ellipse fill="#fcfcfc" stroke="black" cx="142" cy="-1458" rx="18" ry="18"/>
<text text-anchor="middle" x="142" y="-1454.3" font-family="Times,serif" font-size="14.00">4</text>
</g>
<!-- 2&#45;&#45;4 -->
<g id="edge4" class="edge _2_ _4_">
<title>2&#45;&#45;4</title>
<path fill="none" stroke="black" d="M142,-1511.7C142,-1500.85 142,-1486.92 142,-1476.1"/>
</g>
<!-- 5 -->
<g id="id5" class="node">
<title>5</title>
<ellipse fill="#fcfcfc" stroke="black" cx="88" cy="-1386" rx="18" ry="18"/>
<text text-anchor="middle" x="88" y="-1382.3" font-family="Times,serif" font-size="14.00">5</text>
</g>
<!-- 3&#45;&#45;5 -->
<g id="edge5" class="edge _3_ _5_">
<title>3&#45;&#45;5</title>
<path fill="none" stroke="black" d="M88,-1439.7C88,-1428.85 88,-1414.92 88,-1404.1"/>
</g>
<!-- 6 -->
<g id="id6" class="node">
<title>6</title>
<ellipse fill="#fcfcfc" stroke="black" cx="142" cy="-1386" rx="18" ry="18"/>
<text text-anchor="middle" x="142" y="-1382.3" font-family="Times,serif" font-size="14.00">6</text>
</g>
<!-- 4&#45;&#45;6 -->
<g id="edge6" class="edge _4_ _6_">
<title>4&#45;&#45;6</title>
<path fill="none" stroke="black" d="M142,-1439.7C142,-1428.85 142,-1414.92 142,-1404.1"/>
</g>
<!-- 7 -->
<g id="id7" class="node">
<title>7</title>
<ellipse fill="#fcfcfc" stroke="black" cx="88" cy="-1314" rx="18" ry="18"/>
<text text-anchor="middle" x="88" y="-1310.3" font-family="Times,serif" font-size="14.00">7</text>
</g>
<!-- 5&#45;&#45;7 -->
<g id="edge7" class="edge _5_ _7_">
<title>5&#45;&#45;7</title>
<path fill="none" stroke="black" d="M88,-1367.7C88,-1356.85 88,-1342.92 88,-1332.1"/>
</g>
<!-- 8 -->
<g id="id8" class="node">
<title>8</title>
<ellipse fill="#fcfcfc" stroke="black" cx="142" cy="-1314" rx="18" ry="18"/>
<text text-anchor="middle" x="142" y="-1310.3" font-family="Times,serif" font-size="14.00">8</text>
</g>
<!-- 6&#45;&#45;8 -->
<g id="edge8" class="edge _6_ _8_">
<title>6&#45;&#45;8</title>
<path fill="none" stroke="black" d="M142,-1367.7C142,-1356.85 142,-1342.92 142,-1332.1"/>
</g>
<!-- 9 -->
<g id="id9" class="node">
<title>9</title>
<ellipse fill="#fcfcfc" stroke="black" cx="88" cy="-1242" rx="18" ry="18"/>
<text text-anchor="middle" x="88" y="-1238.3" font-family="Times,serif" font-size="14.00">9</text>
</g>
<!-- 7&#45;&#45;9 -->
<g id="edge9" class="edge _7_ _9_">
<title>7&#45;&#45;9</title>
<path fill="none" stroke="black" d="M88,-1295.7C88,-1284.85 88,-1270.92 88,-1260.1"/>
</g>
<!-- 10 -->
<g id="id10" class="node">
<title>10</title>
<ellipse fill="#fcfcfc" stroke="black" cx="142" cy="-1242" rx="18" ry="18"/>
<text text-anchor="middle" x="142" y="-1238.3" font-family="Times,serif" font-size="14.00">10</text>
</g>
<!-- 8&#45;&#45;10 -->
<g id="edge10" class="edge _8_ _10_">
<title>8&#45;&#45;10</title>
<path fill="none" stroke="black" d="M142,-1295.7C142,-1284.85 142,-1270.92 142,-1260.1"/>
</g>
<!-- 11 -->
<g id="id11" class="node">
<title>11</title>
<ellipse fill="#fcfcfc" stroke="black" cx="115" cy="-1170" rx="18" ry="18"/>
<text text-anchor="middle" x="115" y="-1166.3" font-family="Times,serif" font-size="14.00">11</text>
</g>
<!-- 9&#45;&#45;11 -->
<g id="edge11" class="edge _9_ _11_">
<title>9&#45;&#45;11</title>
<path fill="none" stroke="black" d="M94.26,-1224.76C98.62,-1213.46 104.42,-1198.44 108.77,-1187.15"/>
</g>
<!-- 10&#45;&#45;11 -->
<g id="edge12" class="edge _10_ _11_">
<title>10&#45;&#45;11</title>
<path fill="none" stroke="black" d="M135.74,-1224.76C131.38,-1213.46 125.58,-1198.44 121.23,-1187.15"/>
</g>
<!-- 12 -->
<g id="id12" class="node">
<title>12</title>
<ellipse fill="#fcfcfc" stroke="black" cx="115" cy="-1098" rx="18" ry="18"/>
<text text-anchor="middle" x="115" y="-1094.3" font-family="Times,serif" font-size="14.00">12</text>
</g>
<!-- 11&#45;&#45;12 -->
<g id="edge13" class="edge _11_ _12_">
<title>11&#45;&#45;12</title>
<path fill="none" stroke="black" d="M115,-1151.7C115,-1140.85 115,-1126.92 115,-1116.1"/>
</g>
<!-- 13 -->
<g id="id13" class="node">
<title>13</title>
<ellipse fill="#fcfcfc" stroke="black" cx="138" cy="-1026" rx="18" ry="18"/>
<text text-anchor="middle" x="138" y="-1022.3" font-family="Times,serif" font-size="14.00">13</text>
</g>
<!-- 12&#45;&#45;13 -->
<g id="edge14" class="edge _12_ _13_">
<title>12&#45;&#45;13</title>
<path fill="none" stroke="black" d="M120.33,-1080.76C124,-1069.62 128.84,-1054.87 132.53,-1043.63"/>
</g>
<!-- 14 -->
<g id="id14" class="node">
<title>14</title>
<ellipse fill="#fcfcfc" stroke="black" cx="92" cy="-954" rx="18" ry="18"/>
<text text-anchor="middle" x="92" y="-950.3" font-family="Times,serif" font-size="14.00">14</text>
</g>
<!-- 12&#45;&#45;14 -->
<g id="edge15" class="edge _12_ _14_">
<title>12&#45;&#45;14</title>
<path fill="none" stroke="black" d="M112.27,-1080.15C107.84,-1052.82 99.15,-999.14 94.73,-971.82"/>
</g>
<!-- 13&#45;&#45;14 -->
<g id="edge16" class="edge _13_ _14_">
<title>13&#45;&#45;14</title>
<path fill="none" stroke="black" d="M128.47,-1010.5C120.57,-998.48 109.41,-981.49 101.52,-969.49"/>
</g>
<!-- 15 -->
<g id="id15" class="node">
<title>15</title>
<ellipse fill="#fcfcfc" stroke="black" cx="115" cy="-882" rx="18" ry="18"/>
<text text-anchor="middle" x="115" y="-878.3" font-family="Times,serif" font-size="14.00">15</text>
</g>
<!-- 13&#45;&#45;15 -->
<g id="edge17" class="edge _13_ _15_">
<title>13&#45;&#45;15</title>
<path fill="none" stroke="black" d="M135.27,-1008.15C130.84,-980.82 122.15,-927.14 117.73,-899.82"/>
</g>
<!-- 14&#45;&#45;15 -->
<g id="edge18" class="edge _14_ _15_">
<title>14&#45;&#45;15</title>
<path fill="none" stroke="black" d="M97.33,-936.76C101,-925.62 105.84,-910.87 109.53,-899.63"/>
</g>
<!-- 16 -->
<g id="id16" class="node">
<title>16</title>
<ellipse fill="#fcfcfc" stroke="black" cx="115" cy="-810" rx="18" ry="18"/>
<text text-anchor="middle" x="115" y="-806.3" font-family="Times,serif" font-size="14.00">16</text>
</g>
<!-- 15&#45;&#45;16 -->
<g id="edge19" class="edge _15_ _16_">
<title>15&#45;&#45;16</title>
<path fill="none" stroke="black" d="M115,-863.7C115,-852.85 115,-838.92 115,-828.1"/>
</g>
<!-- 17 -->
<g id="id17" class="node">
<title>17</title>
<ellipse fill="#fcfcfc" stroke="black" cx="161" cy="-738" rx="18" ry="18"/>
<text text-anchor="middle" x="161" y="-734.3" font-family="Times,serif" font-size="14.00">17</text>
</g>
<!-- 16&#45;&#45;17 -->
<g id="edge20" class="edge _16_ _17_">
<title>16&#45;&#45;17</title>
<path fill="none" stroke="black" d="M124.53,-794.5C132.43,-782.48 143.59,-765.49 151.48,-753.49"/>
</g>
<!-- 18 -->
<g id="id18" class="node">
<title>18</title>
<ellipse fill="#fcfcfc" stroke="black" cx="69" cy="-666" rx="18" ry="18"/>
<text text-anchor="middle" x="69" y="-662.3" font-family="Times,serif" font-size="14.00">18</text>
</g>
<!-- 16&#45;&#45;18 -->
<g id="edge21" class="edge _16_ _18_">
<title>16&#45;&#45;18</title>
<path fill="none" stroke="black" d="M109.72,-792.71C100.9,-765.47 83.24,-710.95 74.36,-683.54"/>
</g>
<!-- 19 -->
<g id="id19" class="node">
<title>19</title>
<ellipse fill="#fcfcfc" stroke="black" cx="115" cy="-594" rx="18" ry="18"/>
<text text-anchor="middle" x="115" y="-590.3" font-family="Times,serif" font-size="14.00">19</text>
</g>
<!-- 16&#45;&#45;19 -->
<g id="edge22" class="edge _16_ _19_">
<title>16&#45;&#45;19</title>
<path fill="none" stroke="black" d="M115,-791.85C115,-751.78 115,-652.38 115,-612.23"/>
</g>
<!-- 17&#45;&#45;18 -->
<g id="edge23" class="edge _17_ _18_">
<title>17&#45;&#45;18</title>
<path fill="none" stroke="black" d="M147.03,-726.37C129.74,-713.21 100.46,-690.93 83.1,-677.73"/>
</g>
<!-- 17&#45;&#45;19 -->
<g id="edge24" class="edge _17_ _19_">
<title>17&#45;&#45;19</title>
<path fill="none" stroke="black" d="M155.72,-720.71C146.9,-693.47 129.24,-638.95 120.36,-611.54"/>
</g>
<!-- 20 -->
<g id="id20" class="node">
<title>20</title>
<ellipse fill="#fcfcfc" stroke="black" cx="115" cy="-522" rx="18" ry="18"/>
<text text-anchor="middle" x="115" y="-518.3" font-family="Times,serif" font-size="14.00">20</text>
</g>
<!-- 17&#45;&#45;20 -->
<g id="edge25" class="edge _17_ _20_">
<title>17&#45;&#45;20</title>
<path fill="none" stroke="black" d="M161.12,-719.62C160.86,-689.59 158.21,-626.37 142,-576 137.63,-562.43 130.13,-548.09 124.14,-537.75"/>
</g>
<!-- 18&#45;&#45;19 -->
<g id="edge26" class="edge _18_ _19_">
<title>18&#45;&#45;19</title>
<path fill="none" stroke="black" d="M78.53,-650.5C86.43,-638.48 97.59,-621.49 105.48,-609.49"/>
</g>
<!-- 18&#45;&#45;20 -->
<g id="edge27" class="edge _18_ _20_">
<title>18&#45;&#45;20</title>
<path fill="none" stroke="black" d="M71.29,-647.91C74.04,-629.72 79.39,-600.27 88,-576 92.76,-562.57 100.24,-548.22 106.11,-537.84"/>
</g>
<!-- 19&#45;&#45;20 -->
<g id="edge28" class="edge _19_ _20_">
<title>19&#45;&#45;20</title>
<path fill="none" stroke="black" d="M115,-575.7C115,-564.85 115,-550.92 115,-540.1"/>
</g>
<!-- 21 -->
<g id="id21" class="node">
<title>21</title>
<ellipse fill="#fcfcfc" stroke="black" cx="115" cy="-450" rx="18" ry="18"/>
<text text-anchor="middle" x="115" y="-446.3" font-family="Times,serif" font-size="14.00">21</text>
</g>
<!-- 20&#45;&#45;21 -->
<g id="edge29" class="edge _20_ _21_">
<title>20&#45;&#45;21</title>
<path fill="none" stroke="black" d="M115,-503.7C115,-492.85 115,-478.92 115,-468.1"/>
</g>
<!-- 22 -->
<g id="id22" class="node">
<title>22</title>
<ellipse fill="#fcfcfc" stroke="black" cx="115" cy="-378" rx="18" ry="18"/>
<text text-anchor="middle" x="115" y="-374.3" font-family="Times,serif" font-size="14.00">22</text>
</g>
<!-- 21&#45;&#45;22 -->
<g id="edge30" class="edge _21_ _22_">
<title>21&#45;&#45;22</title>
<path fill="none" stroke="black" d="M115,-431.7C115,-420.85 115,-406.92 115,-396.1"/>
</g>
<!-- 23 -->
<g id="id23" class="node">
<title>23</title>
<ellipse fill="#fcfcfc" stroke="black" cx="232" cy="-234" rx="18" ry="18"/>
<text text-anchor="middle" x="232" y="-230.3" font-family="Times,serif" font-size="14.00">23</text>
</g>
<!-- 21&#45;&#45;23 -->
<g id="edge31" class="edge _21_ _23_">
<title>21&#45;&#45;23</title>
<path fill="none" stroke="black" d="M123.91,-434.14C137.78,-410.87 165.21,-364.32 187,-324 200.74,-298.56 215.71,-268.44 224.45,-250.57"/>
</g>
<!-- 24 -->
<g id="id24" class="node">
<title>24</title>
<ellipse fill="#fcfcfc" stroke="black" cx="18" cy="-306" rx="18" ry="18"/>
<text text-anchor="middle" x="18" y="-302.3" font-family="Times,serif" font-size="14.00">24</text>
</g>
<!-- 21&#45;&#45;24 -->
<g id="edge32" class="edge _21_ _24_">
<title>21&#45;&#45;24</title>
<path fill="none" stroke="black" d="M105.17,-434.6C86.57,-407.39 46.47,-348.68 27.86,-321.44"/>
</g>
<!-- 22&#45;&#45;23 -->
<g id="edge33" class="edge _22_ _23_">
<title>22&#45;&#45;23</title>
<path fill="none" stroke="black" d="M126.01,-363.64C148.31,-336.58 198.59,-275.55 220.94,-248.43"/>
</g>
<!-- 25 -->
<g id="id25" class="node">
<title>25</title>
<ellipse fill="#fcfcfc" stroke="black" cx="115" cy="-306" rx="18" ry="18"/>
<text text-anchor="middle" x="115" y="-302.3" font-family="Times,serif" font-size="14.00">25</text>
</g>
<!-- 22&#45;&#45;25 -->
<g id="edge34" class="edge _22_ _25_">
<title>22&#45;&#45;25</title>
<path fill="none" stroke="black" d="M115,-359.7C115,-348.85 115,-334.92 115,-324.1"/>
</g>
<!-- 26 -->
<g id="id26" class="node">
<title>26</title>
<ellipse fill="#fcfcfc" stroke="black" cx="64" cy="-234" rx="18" ry="18"/>
<text text-anchor="middle" x="64" y="-230.3" font-family="Times,serif" font-size="14.00">26</text>
</g>
<!-- 22&#45;&#45;26 -->
<g id="edge35" class="edge _22_ _26_">
<title>22&#45;&#45;26</title>
<path fill="none" stroke="black" d="M106.34,-362.08C100.56,-351.66 93.12,-337.3 88,-324 78.58,-299.5 71.38,-269.87 67.42,-251.73"/>
</g>
<!-- 27 -->
<g id="id27" class="node">
<title>27</title>
<ellipse fill="#fcfcfc" stroke="black" cx="64" cy="-162" rx="18" ry="18"/>
<text text-anchor="middle" x="64" y="-158.3" font-family="Times,serif" font-size="14.00">27</text>
</g>
<!-- 23&#45;&#45;27 -->
<g id="edge36" class="edge _23_ _27_">
<title>23&#45;&#45;27</title>
<path fill="none" stroke="black" d="M215.59,-226.16C183.55,-212.81 113.02,-183.42 80.73,-169.97"/>
</g>
<!-- 28 -->
<g id="id28" class="node">
<title>28</title>
<ellipse fill="#fcfcfc" stroke="black" cx="110" cy="-90" rx="18" ry="18"/>
<text text-anchor="middle" x="110" y="-86.3" font-family="Times,serif" font-size="14.00">28</text>
</g>
<!-- 23&#45;&#45;28 -->
<g id="edge37" class="edge _23_ _28_">
<title>23&#45;&#45;28</title>
<path fill="none" stroke="black" d="M221.78,-219.05C208.53,-201.21 184.45,-169.54 162,-144 149.23,-129.48 133.57,-113.78 122.8,-103.27"/>
</g>
<!-- 29 -->
<g id="id29" class="node">
<title>29</title>
<ellipse fill="#fcfcfc" stroke="black" cx="87" cy="-18" rx="18" ry="18"/>
<text text-anchor="middle" x="87" y="-14.3" font-family="Times,serif" font-size="14.00">29</text>
</g>
<!-- 23&#45;&#45;29 -->
<g id="edge38" class="edge _23_ _29_">
<title>23&#45;&#45;29</title>
<path fill="none" stroke="black" d="M233.32,-215.92C234.86,-184.1 233.73,-115.08 200,-72 175.96,-41.29 129.86,-27.56 104.61,-22.12"/>
</g>
<!-- 24&#45;&#45;26 -->
<g id="edge39" class="edge _24_ _26_">
<title>24&#45;&#45;26</title>
<path fill="none" stroke="black" d="M27.53,-290.5C35.43,-278.48 46.59,-261.49 54.48,-249.49"/>
</g>
<!-- 24&#45;&#45;27 -->
<g id="edge40" class="edge _24_ _27_">
<title>24&#45;&#45;27</title>
<path fill="none" stroke="black" d="M20.29,-287.91C23.04,-269.72 28.39,-240.27 37,-216 41.76,-202.57 49.24,-188.22 55.11,-177.84"/>
</g>
<!-- 24&#45;&#45;28 -->
<g id="edge41" class="edge _24_ _28_">
<title>24&#45;&#45;28</title>
<path fill="none" stroke="black" d="M15.52,-287.94C11.91,-256.74 8.41,-189.53 37,-144 50.66,-122.25 76.78,-106.61 93.78,-98.19"/>
</g>
<!-- 24&#45;&#45;29 -->
<g id="edge42" class="edge _24_ _29_">
<title>24&#45;&#45;29</title>
<path fill="none" stroke="black" d="M14.75,-287.89C12.95,-277.54 10.91,-264.06 10,-252 3.91,-170.81 3.97,-142.89 44,-72 52.51,-56.94 65.3,-41.82 74.72,-31.6"/>
</g>
<!-- 25&#45;&#45;26 -->
<g id="edge43" class="edge _25_ _26_">
<title>25&#45;&#45;26</title>
<path fill="none" stroke="black" d="M104.68,-290.83C95.83,-278.69 83.15,-261.28 74.31,-249.14"/>
</g>
<!-- 25&#45;&#45;27 -->
<g id="edge44" class="edge _25_ _27_">
<title>25&#45;&#45;27</title>
<path fill="none" stroke="black" d="M111.58,-288.27C107.62,-270.13 100.42,-240.5 91,-216 85.88,-202.7 78.44,-188.34 72.66,-177.92"/>
</g>
<!-- 25&#45;&#45;28 -->
<g id="edge45" class="edge _25_ _28_">
<title>25&#45;&#45;28</title>
<path fill="none" stroke="black" d="M114.6,-287.85C113.66,-247.78 111.34,-148.38 110.4,-108.23"/>
</g>
<!-- 25&#45;&#45;29 -->
<g id="edge46" class="edge _25_ _29_">
<title>25&#45;&#45;29</title>
<path fill="none" stroke="black" d="M121.35,-289.03C135.78,-250.25 167.45,-148.65 137,-72 129.9,-54.13 113.61,-38.8 101.54,-29.29"/>
</g>
<!-- 26&#45;&#45;27 -->
<g id="edge47" class="edge _26_ _27_">
<title>26&#45;&#45;27</title>
<path fill="none" stroke="black" d="M64,-215.7C64,-204.85 64,-190.92 64,-180.1"/>
</g>
<!-- 26&#45;&#45;28 -->
<g id="edge48" class="edge _26_ _28_">
<title>26&#45;&#45;28</title>
<path fill="none" stroke="black" d="M72.89,-218.16C78.76,-207.78 86.24,-193.43 91,-180 99.61,-155.73 104.96,-126.28 107.71,-108.09"/>
</g>
<!-- 26&#45;&#45;29 -->
<g id="edge49" class="edge _26_ _29_">
<title>26&#45;&#45;29</title>
<path fill="none" stroke="black" d="M54.2,-218.43C47.91,-208.18 40.33,-193.86 37,-180 33.27,-164.44 33.97,-159.71 37,-144 45,-102.46 66.68,-57.17 78.7,-34.2"/>
</g>
<!-- 27&#45;&#45;28 -->
<g id="edge50" class="edge _27_ _28_">
<title>27&#45;&#45;28</title>
<path fill="none" stroke="black" d="M73.53,-146.5C81.43,-134.48 92.59,-117.49 100.48,-105.49"/>
</g>
<!-- 27&#45;&#45;29 -->
<g id="edge51" class="edge _27_ _29_">
<title>27&#45;&#45;29</title>
<path fill="none" stroke="black" d="M66.73,-144.15C71.16,-116.82 79.85,-63.14 84.27,-35.82"/>
</g>
<!-- 28&#45;&#45;29 -->
<g id="edge52" class="edge _28_ _29_">
<title>28&#45;&#45;29</title>
<path fill="none" stroke="black" d="M104.67,-72.76C101,-61.62 96.16,-46.87 92.47,-35.63"/>
</g>
</g>
</svg>
