<?xml version="1.0" encoding="UTF-8" standalone="no"?>
<!DOCTYPE svg PUBLIC "-//W3C//DTD SVG 1.1//EN"
 "http://www.w3.org/Graphics/SVG/1.1/DTD/svg11.dtd">
<!-- Generated by graphviz version 2.43.0 (0)
 -->
<!-- Title: %3 Pages: 1 -->
<svg width="775pt" height="404pt"
 viewBox="0.00 0.00 774.50 404.00" xmlns="http://www.w3.org/2000/svg" xmlns:xlink="http://www.w3.org/1999/xlink">
<g id="graph0" class="graph" transform="scale(1 1) rotate(0) translate(4 400)">
<title>%3</title>
<polygon fill="white" stroke="transparent" points="-4,4 -4,-400 770.5,-400 770.5,4 -4,4"/>
<!-- 🤖 -->
<g id="robot_begins" class="node">
<title>🤖</title>
<ellipse fill="#fcfcfc" stroke="black" cx="22.5" cy="-378" rx="18" ry="18"/>
<text text-anchor="middle" x="22.5" y="-372.1" font-family="Times,serif" font-size="23.00">🤖</text>
</g>
<!-- 0 -->
<g id="id0" class="node">
<title>0</title>
<ellipse fill="#fcfcfc" stroke="black" cx="81.5" cy="-378" rx="18" ry="18"/>
<text text-anchor="middle" x="81.5" y="-374.3" font-family="Times,serif" font-size="14.00">0</text>
</g>
<!-- 1 -->
<g id="id1" class="node">
<title>1</title>
<ellipse fill="#fcfcfc" stroke="black" cx="104.5" cy="-306" rx="18" ry="18"/>
<text text-anchor="middle" x="104.5" y="-302.3" font-family="Times,serif" font-size="14.00">1</text>
</g>
<!-- 0&#45;&#45;1 -->
<g id="edge1" class="edge _0_ _1_">
<title>0&#45;&#45;1</title>
<path fill="none" stroke="black" d="M86.83,-360.76C90.5,-349.62 95.34,-334.87 99.03,-323.63"/>
</g>
<!-- 17 -->
<g id="id17" class="node">
<title>17</title>
<ellipse fill="#fcfcfc" stroke="black" cx="142.5" cy="-162" rx="18" ry="18"/>
<text text-anchor="middle" x="142.5" y="-158.3" font-family="Times,serif" font-size="14.00">17</text>
</g>
<!-- 0&#45;&#45;17 -->
<g id="edge12" class="edge _0_ _17_">
<title>0&#45;&#45;17</title>
<path fill="none" stroke="black" d="M79.88,-359.83C78.98,-349.47 77.95,-335.99 77.5,-324 75.66,-275.05 76.49,-259.24 99.5,-216 107.63,-200.73 120.47,-185.64 130.01,-175.49"/>
</g>
<!-- 6 -->
<g id="id6" class="node">
<title>6</title>
<ellipse fill="#fcfcfc" stroke="black" cx="142.5" cy="-234" rx="18" ry="18"/>
<text text-anchor="middle" x="142.5" y="-230.3" font-family="Times,serif" font-size="14.00">6</text>
</g>
<!-- 1&#45;&#45;6 -->
<g id="edge25" class="edge _1_ _6_">
<title>1&#45;&#45;6</title>
<path fill="none" stroke="black" d="M112.75,-289.81C119.12,-278.07 127.9,-261.89 134.27,-250.16"/>
</g>
<!-- 25 -->
<g id="id25" class="node">
<title>25</title>
<ellipse fill="#fcfcfc" stroke="black" cx="196.5" cy="-162" rx="18" ry="18"/>
<text text-anchor="middle" x="196.5" y="-158.3" font-family="Times,serif" font-size="14.00">25</text>
</g>
<!-- 1&#45;&#45;25 -->
<g id="edge26" class="edge _1_ _25_">
<title>1&#45;&#45;25</title>
<path fill="none" stroke="black" d="M102.56,-287.87C101.27,-268.85 101.83,-237.94 115.5,-216 116.53,-214.35 158.37,-187.41 181.5,-172.59"/>
</g>
<!-- 2 -->
<g id="id2" class="node">
<title>2</title>
<ellipse fill="#fcfcfc" stroke="black" cx="519.5" cy="-306" rx="18" ry="18"/>
<text text-anchor="middle" x="519.5" y="-302.3" font-family="Times,serif" font-size="14.00">2</text>
</g>
<!-- 3 -->
<g id="id3" class="node">
<title>3</title>
<ellipse fill="#fcfcfc" stroke="black" cx="510.5" cy="-234" rx="18" ry="18"/>
<text text-anchor="middle" x="510.5" y="-230.3" font-family="Times,serif" font-size="14.00">3</text>
</g>
<!-- 2&#45;&#45;3 -->
<g id="edge2" class="edge _2_ _3_">
<title>2&#45;&#45;3</title>
<path fill="none" stroke="black" d="M517.32,-288.05C515.93,-277.21 514.12,-263.18 512.72,-252.28"/>
</g>
<!-- 18 -->
<g id="id18" class="node">
<title>18</title>
<ellipse fill="#fcfcfc" stroke="black" cx="702.5" cy="-234" rx="18" ry="18"/>
<text text-anchor="middle" x="702.5" y="-230.3" font-family="Times,serif" font-size="14.00">18</text>
</g>
<!-- 2&#45;&#45;18 -->
<g id="edge13" class="edge _2_ _18_">
<title>2&#45;&#45;18</title>
<path fill="none" stroke="black" d="M535.58,-297.26C542.03,-294.25 549.57,-290.85 556.5,-288 602.65,-269.06 658.35,-249.82 685.69,-240.6"/>
</g>
<!-- 26 -->
<g id="id26" class="node">
<title>26</title>
<ellipse fill="#fcfcfc" stroke="black" cx="472.5" cy="-162" rx="18" ry="18"/>
<text text-anchor="middle" x="472.5" y="-158.3" font-family="Times,serif" font-size="14.00">26</text>
</g>
<!-- 3&#45;&#45;26 -->
<g id="edge27" class="edge _3_ _26_">
<title>3&#45;&#45;26</title>
<path fill="none" stroke="black" d="M502.25,-217.81C495.88,-206.07 487.1,-189.89 480.73,-178.16"/>
</g>
<!-- 4 -->
<g id="id4" class="node">
<title>4</title>
<ellipse fill="#fcfcfc" stroke="black" cx="177.5" cy="-306" rx="18" ry="18"/>
<text text-anchor="middle" x="177.5" y="-302.3" font-family="Times,serif" font-size="14.00">4</text>
</g>
<!-- 5 -->
<g id="id5" class="node">
<title>5</title>
<ellipse fill="#fcfcfc" stroke="black" cx="196.5" cy="-234" rx="18" ry="18"/>
<text text-anchor="middle" x="196.5" y="-230.3" font-family="Times,serif" font-size="14.00">5</text>
</g>
<!-- 4&#45;&#45;5 -->
<g id="edge3" class="edge _4_ _5_">
<title>4&#45;&#45;5</title>
<path fill="none" stroke="black" d="M182,-288.41C185.03,-277.25 189.01,-262.6 192.03,-251.47"/>
</g>
<!-- 4&#45;&#45;6 -->
<g id="edge4" class="edge _4_ _6_">
<title>4&#45;&#45;6</title>
<path fill="none" stroke="black" d="M169.73,-289.46C163.93,-277.86 156.04,-262.08 150.25,-250.49"/>
</g>
<!-- 5&#45;&#45;17 -->
<g id="edge29" class="edge _5_ _17_">
<title>5&#45;&#45;17</title>
<path fill="none" stroke="black" d="M185.83,-219.17C176.36,-206.9 162.61,-189.06 153.15,-176.8"/>
</g>
<!-- 24 -->
<g id="id24" class="node">
<title>24</title>
<ellipse fill="#fcfcfc" stroke="black" cx="342.5" cy="-162" rx="18" ry="18"/>
<text text-anchor="middle" x="342.5" y="-158.3" font-family="Times,serif" font-size="14.00">24</text>
</g>
<!-- 5&#45;&#45;24 -->
<g id="edge28" class="edge _5_ _24_">
<title>5&#45;&#45;24</title>
<path fill="none" stroke="black" d="M212.4,-225.38C240.49,-211.91 298.55,-184.07 326.62,-170.62"/>
</g>
<!-- 6&#45;&#45;17 -->
<g id="edge30" class="edge _6_ _17_">
<title>6&#45;&#45;17</title>
<path fill="none" stroke="black" d="M142.5,-215.7C142.5,-204.85 142.5,-190.92 142.5,-180.1"/>
</g>
<!-- 7 -->
<g id="id7" class="node">
<title>7</title>
<ellipse fill="#fcfcfc" stroke="black" cx="583.5" cy="-306" rx="18" ry="18"/>
<text text-anchor="middle" x="583.5" y="-302.3" font-family="Times,serif" font-size="14.00">7</text>
</g>
<!-- 7&#45;&#45;3 -->
<g id="edge5" class="edge _7_ _3_">
<title>7&#45;&#45;3</title>
<path fill="none" stroke="black" d="M570.78,-292.81C557.39,-279.96 536.41,-259.85 523.07,-247.05"/>
</g>
<!-- 7&#45;&#45;18 -->
<g id="edge14" class="edge _7_ _18_">
<title>7&#45;&#45;18</title>
<path fill="none" stroke="black" d="M598.57,-296.13C621.34,-282.74 664.26,-257.49 687.18,-244.01"/>
</g>
<!-- 8 -->
<g id="id8" class="node">
<title>8</title>
<ellipse fill="#fcfcfc" stroke="black" cx="380.5" cy="-234" rx="18" ry="18"/>
<text text-anchor="middle" x="380.5" y="-230.3" font-family="Times,serif" font-size="14.00">8</text>
</g>
<!-- 9 -->
<g id="id9" class="node">
<title>9</title>
<ellipse fill="#fcfcfc" stroke="black" cx="250.5" cy="-162" rx="18" ry="18"/>
<text text-anchor="middle" x="250.5" y="-158.3" font-family="Times,serif" font-size="14.00">9</text>
</g>
<!-- 8&#45;&#45;9 -->
<g id="edge6" class="edge _8_ _9_">
<title>8&#45;&#45;9</title>
<path fill="none" stroke="black" d="M365.79,-223.41C361.84,-220.93 357.54,-218.31 353.5,-216 323.28,-198.76 286.87,-180.61 266.43,-170.66"/>
</g>
<!-- 23 -->
<g id="id23" class="node">
<title>23</title>
<ellipse fill="#fcfcfc" stroke="black" cx="449.5" cy="-90" rx="18" ry="18"/>
<text text-anchor="middle" x="449.5" y="-86.3" font-family="Times,serif" font-size="14.00">23</text>
</g>
<!-- 8&#45;&#45;23 -->
<g id="edge21" class="edge _8_ _23_">
<title>8&#45;&#45;23</title>
<path fill="none" stroke="black" d="M385.04,-216.38C390.36,-198.08 400.05,-168.06 412.5,-144 419.82,-129.85 430.4,-115.09 438.38,-104.75"/>
</g>
<!-- 27 -->
<g id="id27" class="node">
<title>27</title>
<ellipse fill="#fcfcfc" stroke="black" cx="341.5" cy="-90" rx="18" ry="18"/>
<text text-anchor="middle" x="341.5" y="-86.3" font-family="Times,serif" font-size="14.00">27</text>
</g>
<!-- 9&#45;&#45;27 -->
<g id="edge31" class="edge _9_ _27_">
<title>9&#45;&#45;27</title>
<path fill="none" stroke="black" d="M264.32,-150.37C281.42,-137.21 310.39,-114.93 327.55,-101.73"/>
</g>
<!-- 29 -->
<g id="id29" class="node">
<title>29</title>
<ellipse fill="#fcfcfc" stroke="black" cx="240.5" cy="-18" rx="18" ry="18"/>
<text text-anchor="middle" x="240.5" y="-14.3" font-family="Times,serif" font-size="14.00">29</text>
</g>
<!-- 9&#45;&#45;29 -->
<g id="edge40" class="edge _9_ _29_">
<title>9&#45;&#45;29</title>
<path fill="none" stroke="black" d="M249.29,-143.87C247.37,-116.58 243.64,-63.52 241.71,-36.19"/>
</g>
<!-- 10 -->
<g id="id10" class="node">
<title>10</title>
<ellipse fill="#fcfcfc" stroke="black" cx="541.5" cy="-378" rx="18" ry="18"/>
<text text-anchor="middle" x="541.5" y="-374.3" font-family="Times,serif" font-size="14.00">10</text>
</g>
<!-- 11 -->
<g id="id11" class="node">
<title>11</title>
<ellipse fill="#fcfcfc" stroke="black" cx="326.5" cy="-306" rx="18" ry="18"/>
<text text-anchor="middle" x="326.5" y="-302.3" font-family="Times,serif" font-size="14.00">11</text>
</g>
<!-- 10&#45;&#45;11 -->
<g id="edge7" class="edge _10_ _11_">
<title>10&#45;&#45;11</title>
<path fill="none" stroke="black" d="M524.6,-371.68C494.7,-362.23 430.49,-341.85 376.5,-324 365.53,-320.37 353.25,-316.2 343.6,-312.89"/>
</g>
<!-- 10&#45;&#45;18 -->
<g id="edge15" class="edge _10_ _18_">
<title>10&#45;&#45;18</title>
<path fill="none" stroke="black" d="M559.39,-375.7C589.75,-372.48 651.18,-361.45 683.5,-324 700.84,-303.9 703.6,-271.86 703.46,-252.2"/>
</g>
<!-- 13 -->
<g id="id13" class="node">
<title>13</title>
<ellipse fill="#fcfcfc" stroke="black" cx="326.5" cy="-234" rx="18" ry="18"/>
<text text-anchor="middle" x="326.5" y="-230.3" font-family="Times,serif" font-size="14.00">13</text>
</g>
<!-- 11&#45;&#45;13 -->
<g id="edge32" class="edge _11_ _13_">
<title>11&#45;&#45;13</title>
<path fill="none" stroke="black" d="M326.5,-287.7C326.5,-276.85 326.5,-262.92 326.5,-252.1"/>
</g>
<!-- 11&#45;&#45;17 -->
<g id="edge39" class="edge _11_ _17_">
<title>11&#45;&#45;17</title>
<path fill="none" stroke="black" d="M313.64,-292.9C294.59,-275.21 257.47,-241.61 223.5,-216 211.62,-207.05 177.45,-185.14 157.49,-172.47"/>
</g>
<!-- 12 -->
<g id="id12" class="node">
<title>12</title>
<ellipse fill="#fcfcfc" stroke="black" cx="403.5" cy="-306" rx="18" ry="18"/>
<text text-anchor="middle" x="403.5" y="-302.3" font-family="Times,serif" font-size="14.00">12</text>
</g>
<!-- 12&#45;&#45;13 -->
<g id="edge8" class="edge _12_ _13_">
<title>12&#45;&#45;13</title>
<path fill="none" stroke="black" d="M390.44,-293.13C376.19,-280.18 353.54,-259.58 339.37,-246.7"/>
</g>
<!-- 12&#45;&#45;23 -->
<g id="edge22" class="edge _12_ _23_">
<title>12&#45;&#45;23</title>
<path fill="none" stroke="black" d="M407.11,-288.21C415.71,-248.2 437.33,-147.64 445.91,-107.71"/>
</g>
<!-- 13&#45;&#45;25 -->
<g id="edge33" class="edge _13_ _25_">
<title>13&#45;&#45;25</title>
<path fill="none" stroke="black" d="M310.57,-225.34C290.13,-215.39 253.72,-197.24 223.5,-180 219.46,-177.69 215.16,-175.07 211.21,-172.59"/>
</g>
<!-- 13&#45;&#45;27 -->
<g id="edge34" class="edge _13_ _27_">
<title>13&#45;&#45;27</title>
<path fill="none" stroke="black" d="M321.12,-216.74C315.94,-198.76 309.69,-169.02 315.5,-144 318.7,-130.22 326,-115.9 332.06,-105.62"/>
</g>
<!-- 14 -->
<g id="id14" class="node">
<title>14</title>
<ellipse fill="#fcfcfc" stroke="black" cx="564.5" cy="-234" rx="18" ry="18"/>
<text text-anchor="middle" x="564.5" y="-230.3" font-family="Times,serif" font-size="14.00">14</text>
</g>
<!-- 15 -->
<g id="id15" class="node">
<title>15</title>
<ellipse fill="#fcfcfc" stroke="black" cx="564.5" cy="-162" rx="18" ry="18"/>
<text text-anchor="middle" x="564.5" y="-158.3" font-family="Times,serif" font-size="14.00">15</text>
</g>
<!-- 14&#45;&#45;15 -->
<g id="edge9" class="edge _14_ _15_">
<title>14&#45;&#45;15</title>
<path fill="none" stroke="black" d="M564.5,-215.7C564.5,-204.85 564.5,-190.92 564.5,-180.1"/>
</g>
<!-- 14&#45;&#45;23 -->
<g id="edge23" class="edge _14_ _23_">
<title>14&#45;&#45;23</title>
<path fill="none" stroke="black" d="M554.89,-218.72C542.65,-200.78 520.54,-169.31 499.5,-144 487.37,-129.41 472.29,-113.72 461.88,-103.23"/>
</g>
<!-- 20 -->
<g id="id20" class="node">
<title>20</title>
<ellipse fill="#fcfcfc" stroke="black" cx="641.5" cy="-90" rx="18" ry="18"/>
<text text-anchor="middle" x="641.5" y="-86.3" font-family="Times,serif" font-size="14.00">20</text>
</g>
<!-- 15&#45;&#45;20 -->
<g id="edge41" class="edge _15_ _20_">
<title>15&#45;&#45;20</title>
<path fill="none" stroke="black" d="M577.56,-149.13C591.81,-136.18 614.46,-115.58 628.63,-102.7"/>
</g>
<!-- 15&#45;&#45;27 -->
<g id="edge35" class="edge _15_ _27_">
<title>15&#45;&#45;27</title>
<path fill="none" stroke="black" d="M547.37,-155.62C505.76,-142.56 399.74,-109.28 358.38,-96.3"/>
</g>
<!-- 15&#45;&#45;29 -->
<g id="edge42" class="edge _15_ _29_">
<title>15&#45;&#45;29</title>
<path fill="none" stroke="black" d="M554.64,-146.8C539.99,-126.85 510.52,-90.85 476.5,-72 402.85,-31.19 299.8,-21.8 258.58,-19.64"/>
</g>
<!-- 16 -->
<g id="id16" class="node">
<title>16</title>
<ellipse fill="#fcfcfc" stroke="black" cx="303.5" cy="-378" rx="18" ry="18"/>
<text text-anchor="middle" x="303.5" y="-374.3" font-family="Times,serif" font-size="14.00">16</text>
</g>
<!-- 16&#45;&#45;9 -->
<g id="edge10" class="edge _16_ _9_">
<title>16&#45;&#45;9</title>
<path fill="none" stroke="black" d="M299.34,-360.21C289.43,-320.2 264.53,-219.64 254.64,-179.71"/>
</g>
<!-- 16&#45;&#45;11 -->
<g id="edge11" class="edge _16_ _11_">
<title>16&#45;&#45;11</title>
<path fill="none" stroke="black" d="M308.83,-360.76C312.5,-349.62 317.34,-334.87 321.03,-323.63"/>
</g>
<!-- 17&#45;&#45;29 -->
<g id="edge48" class="edge _17_ _29_">
<title>17&#45;&#45;29</title>
<path fill="none" stroke="black" d="M152.25,-146.87C170.94,-119.79 211.61,-60.86 230.49,-33.5"/>
</g>
<!-- 18&#45;&#45;20 -->
<g id="edge49" class="edge _18_ _20_">
<title>18&#45;&#45;20</title>
<path fill="none" stroke="black" d="M699.73,-215.99C696.32,-197.62 689.59,-167.79 678.5,-144 671.76,-129.56 661.12,-114.83 652.97,-104.58"/>
</g>
<!-- 19 -->
<g id="id19" class="node">
<title>19</title>
<ellipse fill="#fcfcfc" stroke="black" cx="618.5" cy="-162" rx="18" ry="18"/>
<text text-anchor="middle" x="618.5" y="-158.3" font-family="Times,serif" font-size="14.00">19</text>
</g>
<!-- 19&#45;&#45;20 -->
<g id="edge16" class="edge _19_ _20_">
<title>19&#45;&#45;20</title>
<path fill="none" stroke="black" d="M623.83,-144.76C627.5,-133.62 632.34,-118.87 636.03,-107.63"/>
</g>
<!-- 19&#45;&#45;23 -->
<g id="edge24" class="edge _19_ _23_">
<title>19&#45;&#45;23</title>
<path fill="none" stroke="black" d="M603.96,-151.08C600.01,-148.6 595.67,-146.06 591.5,-144 548.11,-122.52 493.73,-104.54 466.58,-96.12"/>
</g>
<!-- 21 -->
<g id="id21" class="node">
<title>21</title>
<ellipse fill="#fcfcfc" stroke="black" cx="748.5" cy="-306" rx="18" ry="18"/>
<text text-anchor="middle" x="748.5" y="-302.3" font-family="Times,serif" font-size="14.00">21</text>
</g>
<!-- 21&#45;&#45;18 -->
<g id="edge17" class="edge _21_ _18_">
<title>21&#45;&#45;18</title>
<path fill="none" stroke="black" d="M738.97,-290.5C731.07,-278.48 719.91,-261.49 712.02,-249.49"/>
</g>
<!-- 21&#45;&#45;20 -->
<g id="edge18" class="edge _21_ _20_">
<title>21&#45;&#45;20</title>
<path fill="none" stroke="black" d="M746.7,-287.97C742.69,-256.82 730.71,-189.69 698.5,-144 686.51,-126.99 668.32,-111.27 655.72,-101.44"/>
</g>
<!-- 22 -->
<g id="id22" class="node">
<title>22</title>
<ellipse fill="#fcfcfc" stroke="black" cx="656.5" cy="-306" rx="18" ry="18"/>
<text text-anchor="middle" x="656.5" y="-302.3" font-family="Times,serif" font-size="14.00">22</text>
</g>
<!-- 22&#45;&#45;18 -->
<g id="edge19" class="edge _22_ _18_">
<title>22&#45;&#45;18</title>
<path fill="none" stroke="black" d="M666.03,-290.5C673.93,-278.48 685.09,-261.49 692.98,-249.49"/>
</g>
<!-- 22&#45;&#45;20 -->
<g id="edge20" class="edge _22_ _20_">
<title>22&#45;&#45;20</title>
<path fill="none" stroke="black" d="M655.35,-287.61C653.39,-258.08 649.26,-196.26 645.5,-144 644.64,-132.04 643.62,-118.55 642.83,-108.18"/>
</g>
<!-- 24&#45;&#45;23 -->
<g id="edge46" class="edge _24_ _23_">
<title>24&#45;&#45;23</title>
<path fill="none" stroke="black" d="M357.38,-151.27C377.82,-137.89 414.37,-113.98 434.75,-100.65"/>
</g>
<!-- 24&#45;&#45;27 -->
<g id="edge36" class="edge _24_ _27_">
<title>24&#45;&#45;27</title>
<path fill="none" stroke="black" d="M342.25,-143.7C342.1,-132.85 341.9,-118.92 341.74,-108.1"/>
</g>
<!-- 28 -->
<g id="id28" class="node">
<title>28</title>
<ellipse fill="#fcfcfc" stroke="black" cx="286.5" cy="-90" rx="18" ry="18"/>
<text text-anchor="middle" x="286.5" y="-86.3" font-family="Times,serif" font-size="14.00">28</text>
</g>
<!-- 25&#45;&#45;28 -->
<g id="edge37" class="edge _25_ _28_">
<title>25&#45;&#45;28</title>
<path fill="none" stroke="black" d="M210.56,-150.06C227.47,-136.91 255.67,-114.98 272.54,-101.86"/>
</g>
<!-- 25&#45;&#45;29 -->
<g id="edge43" class="edge _25_ _29_">
<title>25&#45;&#45;29</title>
<path fill="none" stroke="black" d="M201.55,-144.71C209.99,-117.47 226.88,-62.95 235.38,-35.54"/>
</g>
<!-- 26&#45;&#45;20 -->
<g id="edge44" class="edge _26_ _20_">
<title>26&#45;&#45;20</title>
<path fill="none" stroke="black" d="M489.01,-154.16C521.4,-140.74 592.92,-111.12 625.17,-97.76"/>
</g>
<!-- 26&#45;&#45;23 -->
<g id="edge47" class="edge _26_ _23_">
<title>26&#45;&#45;23</title>
<path fill="none" stroke="black" d="M467.17,-144.76C463.5,-133.62 458.66,-118.87 454.97,-107.63"/>
</g>
<!-- 26&#45;&#45;28 -->
<g id="edge38" class="edge _26_ _28_">
<title>26&#45;&#45;28</title>
<path fill="none" stroke="black" d="M454.95,-156.49C425.26,-148.56 363.57,-130.78 314.5,-108 310.06,-105.94 305.45,-103.35 301.27,-100.81"/>
</g>
<!-- 28&#45;&#45;29 -->
<g id="edge45" class="edge _28_ _29_">
<title>28&#45;&#45;29</title>
<path fill="none" stroke="black" d="M276.97,-74.5C269.07,-62.48 257.91,-45.49 250.02,-33.49"/>
</g>
</g>
</svg>
